# xmcd
#
# Track frame offsets:
#	182
#	11237
#	25435
#	37195
#	48762
#	59837
#	74402
#	87722
#	99670
#	113312
#	127075
#	140270
#	152865
#	165572
#
# Disc length: 2340 seconds
#
# Revision: 0
# Processed by: cddbd v1.5PL3 Copyright (c) Steve Scherf et al.
# Submitted via: audiograbber 1.82.02
#
DISCID=c909220e
DTITLE=Various Artist - Big Band Blues
DYEAR=1990
DGENRE=Blues
TTITLE0=Jimmy Rushing - Hey Miss Bessie
TTITLE1=Jimmy Rushing - Ain't It Lonesome
TTITLE2=Jimmy Rushing - Lotsa Poppa
TTITLE3=Jimmy Rushing - Fool's Blues
TTITLE4=Jimmy Rushing - Hey Miss Bessie (Alternate Take)
TTITLE5=J.B. Summers - Merry-Go-Round
TTITLE6=Tiny Tim - Do The Bump (Part 1)
TTITLE7=Ernie Fields - Butch's Blues
TTITLE8=Ernie Fields - Frustrated Woman
TTITLE9=Ernie Fields - Untitled Blues
TTITLE10=Ernie Fields - My Prince
TTITLE11=Ernie Fields - Butch's Blues (Alternate Take)
TTITLE12=Tiny Tim - Worst Old Feeling
TTITLE13=Tiny Tim - Do The Bump (Part 2)
EXTD=
EXTT0=
EXTT1=
EXTT2=
EXTT3=
EXTT4=
EXTT5=
EXTT6=
EXTT7=
EXTT8=
EXTT9=
EXTT10=
EXTT11=
EXTT12=
EXTT13=
PLAYORDER=
